{"title":"Megadeth - Rust In Peace - Custom Remaster by MC Lurken 24-bit 9","uid":7700433,"size":1046375875,"categoryP":"audio","categoryS":"flac","magnet":"?xt=urn:btih:284ebbaaeaff2f50f834ac23b0e588e0fbc12951&amp;dn=Megadeth+-+Rust+In+Peace+-+Custom+Remaster+by+MC+Lurken+24-bit+9&amp;tr=udp%3A%2F%2Ftracker.openbittorrent.com%3A80&amp;tr=udp%3A%2F%2Fopen.demonii.com%3A1337&amp;tr=udp%3A%2F%2Ftracker.coppersurfer.tk%3A6969&amp;tr=udp%3A%2F%2Fexodus.desync.com%3A6969","seeders":0,"leechers":1,"uploader":"beavis39","files":-1,"time":1349493399,"description":"Megadeth - Rust In Peace - Custom Remaster by MC Lurken\n\n\n\nProduced from original 1990 release, not 2004 remaster\n\n\n\n1 - Holy Wars... The Punishment Due\n2 - Hangar 18\n3 - Take No Prisoners\n4 - Five Magics\n5 - Poison Was The Cure\n6 - Lucretia\n7 - Tornado Of Souls\n8 - Dawn Patrol\n9 - Rust In Peace... Polaris\n\n\n\nSetup:\n-HP G72-250US\n-Intel Core i3 M350 2.27GHz\n-8Gb PC3-10700 RAM\n-Win7 64-bit SP1\n-SB X-Fi Surround 5.1\n\n\nProcess:\n-Original 16-bit/44.1kHz files joined in Wavelab 6\n-Remove DC offset and save as 64-bit float/44.1kHz\n-Resample to 384kHz in Wavelab w/crystal resampler ultra(slow) relax background priority\n-Create new 64-bit/384kHz master recording in Wavelab (3.25db recording gain)\n\n\nAs reported in Wavelab:\n-Original 16-bit/44.1kHz: Apparent Bit Resolution = 16, Peak = 0db\n-With DC Offset Removed: Apparent Bit Resolution = 18, Peak = 0.031db\n-64-bit/384kHz Recording: Apparent Bit Resolution = 35, Peak = 3.479db*     (*after 3.25db recording gain)\n\n\n-Resample new 64-bit/384kHz master recording to 64-bit/96kHz in Wavelab w/crystal resampler ultra(slow) relax background priority\n-Apply MBIT+ 24-bit Dither in Wavelab w/Izotope Ozone 5 VST Plugin\n-Flac encode level 0 with Trader's Little Helper\n-Tag and pic with xrecode II\n\n\nfoobar2000 1.1.14a / Dynamic Range Meter 1.1.1\nlog date: 2012-10-05 18:33:10\n\n--------------------------------------------------------------------------------\nAnalyzed: ? / ?\n--------------------------------------------------------------------------------\n\nDR         Peak         RMS     Duration Track\n--------------------------------------------------------------------------------\nDR11       0.00 dB   -11.87 dB      6:36 ?-01 - Holy Wars... The Punishment Due\nDR10       0.00 dB   -10.92 dB      5:15 ?-02 - Hangar 18\nDR9        0.00 dB   -11.16 dB      3:29 ?-03 - Take No Prisoners\nDR9        0.00 dB   -11.17 dB      5:43 ?-04 - Five Magics\nDR9        0.00 dB   -11.13 dB      2:58 ?-05 - Poison Was The Cure\nDR9        0.00 dB   -10.72 dB      3:58 ?-06 - Lucretia\nDR9        0.00 dB   -10.70 dB      5:23 ?-07 - Tornado Of Souls\nDR13       0.00 dB   -14.46 dB      1:51 ?-08 - Dawn Patrol\nDR12       0.00 dB   -12.42 dB      5:37 ?-09 - Rust In Peace... Polaris\n--------------------------------------------------------------------------------\n\nNumber of tracks:  9\nOfficial DR value: DR10\n\nSamplerate:        96000 Hz\nChannels:          2\nBits per sample:   24\nBitrate:           4608 kbps\nCodec:             PCM\n\n\n***Disclaimer*** DR decreased in this custom remaster. Original release is very dynamic (DR13) but at a low volume. This custom remaster intended to give this album a louder, more &quot;metal&quot; sound. If you want the dynamics of the original release then DO NOT DOWNLOAD. Coming in at DR10 this custom remaster is still fairly dynamic.\n\n\n\nenjoy :)","torrent":{"xt":"urn:btih:284ebbaaeaff2f50f834ac23b0e588e0fbc12951","amp;dn":"Megadeth+-+Rust+In+Peace+-+Custom+Remaster+by+MC+Lurken+24-bit+9","amp;tr":["udp%3A%2F%2Ftracker.openbittorrent.com%3A80","udp%3A%2F%2Fopen.demonii.com%3A1337","udp%3A%2F%2Ftracker.coppersurfer.tk%3A6969","udp%3A%2F%2Fexodus.desync.com%3A6969"],"infoHash":"284ebbaaeaff2f50f834ac23b0e588e0fbc12951","infoHashBuffer":{"type":"Buffer","data":[40,78,187,170,234,255,47,80,248,52,172,35,176,229,136,224,251,193,41,81]},"announce":[],"urlList":[]}}